<?xml version="1.0" standalone="no"?>
<!DOCTYPE svg PUBLIC "-//W3C//DTD SVG 20010904//EN"
 "http://www.w3.org/TR/2001/REC-SVG-20010904/DTD/svg10.dtd">
<svg version="1.0" xmlns="http://www.w3.org/2000/svg"
 width="987.000000pt" height="987.000000pt" viewBox="0 0 987.000000 987.000000"
 preserveAspectRatio="xMidYMid meet">
<metadata>
Created by potrace 1.14, written by Peter Selinger 2001-2017
</metadata>
<g transform="translate(0.000000,987.000000) scale(0.100000,-0.100000)"
fill="#000000" stroke="none">
<path d="M4818 9585 c-2 -1 -68 -6 -148 -9 -80 -4 -156 -8 -170 -11 -14 -2
-54 -7 -90 -10 -36 -4 -76 -8 -90 -10 -14 -2 -43 -6 -65 -9 -22 -3 -56 -8 -75
-11 -45 -6 -109 -16 -135 -21 -11 -3 -38 -7 -60 -10 -22 -3 -71 -12 -110 -19
-38 -8 -82 -16 -98 -19 -15 -3 -35 -7 -45 -10 -9 -3 -28 -8 -42 -10 -14 -3
-45 -10 -70 -16 -25 -6 -56 -13 -70 -16 -14 -3 -50 -12 -80 -21 -30 -9 -56
-15 -57 -15 -2 1 -21 -5 -43 -13 -22 -8 -40 -12 -40 -8 0 3 -6 1 -12 -4 -7 -6
-37 -16 -67 -23 -30 -7 -81 -23 -115 -36 -33 -13 -65 -24 -72 -24 -7 0 -25 -5
-41 -12 -15 -6 -30 -12 -33 -13 -29 -7 -88 -30 -97 -38 -7 -5 -13 -7 -13 -4 0
3 -26 -6 -57 -20 -32 -14 -58 -24 -58 -23 0 1 -13 -4 -30 -11 -16 -7 -32 -13
-35 -14 -22 -5 -61 -21 -108 -43 -32 -14 -60 -26 -63 -26 -14 -2 -114 -52
-117 -58 -2 -5 -11 -8 -21 -8 -9 0 -27 -7 -39 -16 -12 -8 -22 -12 -22 -8 0 3
-7 1 -15 -6 -16 -14 -132 -70 -142 -69 -3 0 -9 -3 -12 -8 -5 -7 -171 -96 -238
-127 -13 -6 -23 -14 -23 -18 0 -5 -4 -8 -9 -8 -9 0 -139 -75 -189 -109 -15
-10 -74 -49 -132 -87 -58 -38 -111 -75 -118 -82 -8 -6 -21 -16 -31 -22 -10 -5
-31 -20 -47 -34 -16 -13 -51 -43 -77 -65 l-48 -41 43 -1 c71 -2 86 -4 91 -9 3
-3 -38 -6 -91 -6 -58 -1 -89 2 -77 7 16 6 17 8 3 8 -9 1 -20 -4 -23 -9 -5 -8
-12 -7 -23 2 -10 8 -13 8 -9 1 5 -8 -3 -11 -25 -9 -18 1 -43 -2 -55 -6 -13 -4
-25 -3 -29 3 -4 6 -11 5 -22 -3 -12 -10 -14 -10 -8 0 4 6 2 12 -3 12 -6 0 -11
-4 -11 -9 0 -5 -11 -8 -24 -7 -67 8 -269 -85 -332 -153 -50 -52 -64 -86 -64
-154 0 -55 -1 -58 -17 -46 -17 13 -17 13 -3 -5 11 -14 15 -51 15 -167 0 -93
-4 -149 -10 -149 -5 0 -3 -5 5 -10 11 -7 11 -10 2 -10 -9 0 -10 -5 -3 -19 6
-10 8 -21 5 -24 -10 -10 -9 -87 1 -91 6 -3 6 -5 0 -5 -6 -1 -8 -27 -5 -68 5
-62 -3 -451 -8 -411 -4 33 -21 28 -33 -9 -6 -21 -15 -40 -18 -43 -16 -13 -174
-374 -174 -397 0 -7 -4 -13 -9 -13 -5 0 -7 -4 -3 -9 3 -5 1 -12 -4 -15 -5 -3
-12 -18 -16 -33 -3 -16 -12 -41 -19 -58 -16 -38 -56 -155 -61 -177 -2 -9 -9
-27 -16 -40 -7 -13 -11 -24 -10 -26 1 -1 -7 -32 -19 -68 -11 -36 -22 -76 -25
-88 -2 -11 -9 -39 -15 -61 -6 -22 -13 -53 -16 -70 -3 -16 -11 -55 -19 -85 -12
-51 -23 -104 -31 -155 -1 -11 -5 -31 -9 -45 -3 -14 -7 -38 -10 -55 -2 -16 -7
-43 -10 -60 -3 -16 -7 -46 -9 -65 -3 -19 -5 -35 -6 -35 -1 0 -3 -13 -5 -30 -1
-16 -5 -65 -9 -107 -24 -288 -25 -767 -1 -998 7 -70 16 -142 20 -175 2 -16 5
-45 6 -62 2 -18 7 -33 11 -33 4 0 3 -11 -2 -24 -5 -14 -5 -26 -1 -28 5 -2 11
-21 14 -43 3 -22 15 -85 26 -140 11 -54 17 -104 14 -109 -3 -5 -1 -6 5 -2 7 4
10 -3 7 -23 -2 -18 2 -35 11 -42 7 -6 11 -15 8 -20 -3 -5 0 -26 7 -47 7 -20
12 -39 12 -42 0 -3 8 -27 17 -55 9 -27 18 -54 20 -60 6 -22 9 -34 39 -125 18
-52 33 -99 35 -105 6 -19 18 -50 27 -70 4 -11 18 -45 29 -75 22 -57 36 -90 76
-174 13 -28 24 -55 24 -61 0 -6 6 -17 13 -23 6 -7 12 -16 13 -20 2 -17 24 -61
33 -67 6 -3 11 -15 11 -25 0 -10 3 -20 8 -22 4 -1 25 -37 46 -78 21 -41 43
-82 50 -90 6 -8 22 -35 36 -60 34 -65 230 -353 295 -435 267 -337 533 -593
805 -776 36 -24 66 -47 68 -51 2 -5 7 -8 12 -8 8 0 109 -59 120 -70 5 -5 24
-16 99 -57 25 -14 75 -42 111 -62 36 -20 67 -36 70 -36 3 -1 32 -14 65 -30 33
-16 62 -30 65 -30 3 -1 19 -8 36 -18 17 -9 34 -13 38 -10 3 4 6 1 6 -5 0 -7 3
-11 8 -10 4 0 14 -2 22 -5 33 -14 186 -69 200 -72 8 -2 16 -4 18 -5 1 -2 5 -3
10 -5 4 -1 14 -4 22 -8 20 -8 118 -38 133 -41 7 -2 19 -6 27 -9 8 -4 24 -8 35
-10 11 -1 25 -6 31 -9 6 -4 26 -10 45 -13 19 -3 88 -20 154 -36 131 -34 146
-37 190 -44 29 -4 54 -9 105 -21 14 -3 39 -7 55 -10 17 -3 41 -7 55 -10 46 -8
145 -23 185 -29 22 -3 51 -8 65 -10 26 -5 102 -15 155 -21 17 -2 49 -6 72 -9
63 -7 138 -14 228 -20 70 -5 120 -11 120 -15 0 0 54 -4 120 -7 262 -15 1161
-7 1275 11 27 5 126 15 205 22 51 4 91 9 155 18 19 3 55 8 80 11 111 14 303
48 341 60 11 4 32 8 47 11 28 4 35 5 87 18 17 4 57 14 90 23 84 21 84 20 145
38 30 9 65 18 77 21 68 14 371 121 478 169 17 7 55 23 85 36 30 12 62 28 70
34 26 21 139 75 155 75 8 0 15 4 15 9 0 4 37 32 83 62 77 50 237 161 264 184
7 5 24 19 38 30 14 11 34 27 45 35 10 8 33 26 50 40 18 14 43 34 55 45 13 11
51 45 86 75 112 97 355 345 445 455 27 33 52 62 55 65 16 14 202 265 211 286
6 13 14 24 17 24 3 0 20 23 36 51 17 29 38 60 48 70 9 11 16 20 15 22 -1 1 6
14 15 30 39 63 44 72 45 81 0 5 4 12 9 15 35 24 279 526 328 676 7 22 27 78
45 125 17 47 33 92 35 101 2 9 10 36 18 60 8 24 29 98 47 163 32 121 37 141
46 186 2 14 7 32 10 40 3 8 8 33 10 55 3 22 8 47 11 55 9 23 12 1760 3 1816
-13 80 -18 103 -24 113 -4 5 -8 22 -10 38 -3 15 -7 39 -10 53 -3 14 -8 35 -11
48 -3 12 -7 32 -10 45 -13 63 -28 125 -36 147 -4 14 -11 41 -15 60 -10 46 -11
50 -13 53 -2 1 -4 12 -7 24 -9 53 -110 335 -138 388 -14 26 -16 81 -15 415 l1
385 -25 51 c-35 71 -97 127 -192 175 l-80 40 -6 -28 c-4 -15 -8 -23 -9 -18 -6
25 -4 82 2 97 5 9 4 20 -2 23 -5 3 -10 12 -10 18 0 7 4 6 10 -3 9 -13 10 -13
10 1 0 8 -6 21 -12 28 -10 11 -10 13 0 7 6 -4 12 -2 12 3 0 6 -5 11 -11 11 -6
0 -8 8 -4 19 12 37 14 61 6 66 -5 2 -7 17 -5 32 3 28 -22 92 -40 105 -6 4 -7
8 -2 8 5 0 1 10 -10 22 -10 12 -13 18 -6 14 6 -4 12 -2 12 3 0 6 -9 11 -20 11
-11 0 -20 5 -20 10 0 11 -32 44 -83 87 -15 13 -27 20 -27 17 0 -3 -7 1 -15 10
-29 28 -126 57 -202 59 -40 1 -73 5 -73 8 0 3 -7 6 -15 6 -8 0 -15 -5 -15 -10
0 -5 -7 -4 -15 3 -12 10 -15 10 -15 -1 0 -11 -2 -11 -9 0 -8 12 -12 12 -25 2
-13 -11 -17 -11 -22 3 -5 14 -7 14 -22 -1 -11 -10 -17 -12 -20 -4 -2 6 -9 8
-15 4 -17 -10 -47 -11 -47 -1 0 5 -8 4 -19 -1 -10 -6 -22 -7 -25 -3 -11 10
-40 8 -48 -3 -5 -6 -8 -5 -8 3 0 20 -37 55 -135 126 -49 36 -94 69 -100 74
-21 16 -283 181 -350 219 -159 92 -461 245 -595 302 -41 17 -82 36 -90 40 -9
5 -70 30 -135 55 -66 26 -131 52 -145 57 -14 6 -59 22 -100 35 -41 14 -84 29
-95 34 -19 9 -88 28 -110 31 -5 0 -17 5 -26 10 -23 12 -346 99 -427 115 -13 3
-74 15 -135 28 -62 14 -130 27 -152 30 -54 8 -105 16 -135 22 -14 3 -41 7 -60
9 -19 3 -51 7 -70 10 -35 5 -66 8 -195 19 -38 4 -92 9 -120 12 -55 6 -452 14
-457 9z m-3295 -1296 c37 -1 65 -5 62 -7 -8 -9 -175 -5 -183 3 -4 5 -2 6 3 2
6 -3 17 -2 25 3 8 5 17 7 20 5 3 -2 36 -5 73 -6z m7131 -61 c-6 -10 -4 -10 7
-2 8 6 45 11 83 12 100 2 78 -10 -43 -23 -31 -4 -71 -8 -88 -10 -27 -3 -63 14
-63 29 0 1 25 4 56 5 44 2 54 -1 48 -11z m262 -10 c4 -7 4 -10 -1 -6 -4 4 -15
2 -23 -5 -11 -8 -14 -8 -9 0 4 6 1 14 -5 16 -7 3 -3 6 9 6 12 1 25 -5 29 -11z
m38 -14 c5 -14 4 -15 -9 -4 -17 14 -19 20 -6 20 5 0 12 -7 15 -16z m50 -33
c-2 -3 -12 3 -22 13 -16 17 -16 18 5 5 12 -7 20 -15 17 -18z m-7585 -5 c39 1
75 5 82 10 22 13 -3 -18 -39 -50 -34 -30 -39 -31 -136 -33 -133 -2 -128 -2
-122 -11 2 -4 -5 -9 -17 -9 -17 -2 -19 0 -7 7 12 8 10 10 -8 10 -14 0 -21 -4
-16 -11 4 -8 1 -8 -12 -1 -24 12 -117 4 -126 -11 -6 -9 -8 -9 -8 1 0 6 -5 12
-11 12 -5 0 -7 -6 -3 -12 6 -10 5 -10 -7 -1 -9 7 -20 8 -29 3 -8 -5 -18 -7
-22 -4 -14 9 -89 -19 -84 -31 2 -7 -5 -11 -17 -10 -36 3 -69 -37 -70 -84 -1
-22 -6 -41 -11 -41 -8 0 -8 -3 0 -8 16 -11 25 -42 11 -36 -8 3 -13 -5 -14 -18
-2 -18 0 -20 7 -8 8 13 10 12 10 -2 0 -10 -6 -18 -12 -19 -10 0 -10 -2 0 -6 6
-2 9 -10 5 -16 -4 -7 -9 -21 -10 -32 -2 -16 -1 -17 6 -5 5 8 7 18 5 22 -3 4 0
8 5 8 15 0 14 -13 -4 -36 -16 -21 -20 -38 -7 -30 5 3 9 -1 9 -9 0 -8 -4 -12
-9 -9 -4 3 -8 -2 -8 -11 0 -9 4 -14 8 -11 5 3 9 -1 9 -9 0 -8 -4 -12 -9 -9 -4
3 -8 -4 -8 -15 0 -12 6 -21 13 -21 8 0 7 -4 -3 -10 -13 -8 -13 -13 -2 -31 8
-11 9 -18 3 -14 -15 9 -14 -18 2 -34 8 -9 8 -12 0 -7 -8 4 -11 -11 -12 -54 0
-44 3 -59 12 -53 9 5 9 3 0 -8 -8 -10 -13 -71 -15 -184 -2 -144 -6 -177 -22
-213 -11 -23 -25 -41 -30 -39 -13 4 -15 427 -2 427 5 0 3 6 -3 13 -6 8 -8 17
-4 20 9 10 10 87 0 87 -4 0 -5 5 -2 11 4 5 7 103 7 217 0 207 10 280 36 274 7
-1 12 5 12 13 0 8 6 15 14 15 8 0 16 6 19 13 6 16 125 76 147 74 3 0 16 6 30
13 18 10 74 14 202 15 97 0 180 4 185 8 4 5 9 5 10 0 2 -5 34 -8 72 -7z m-172
-92 c-3 -3 -12 -4 -19 -1 -8 3 -5 6 6 6 11 1 17 -2 13 -5z m46 -1 c-7 -2 -19
-2 -25 0 -7 3 -2 5 12 5 14 0 19 -2 13 -5z m74 1 c-3 -3 -12 -4 -19 -1 -8 3
-5 6 6 6 11 1 17 -2 13 -5z m7903 -409 c0 -8 -4 -15 -10 -15 -5 0 -7 7 -4 15
4 8 8 15 10 15 2 0 4 -7 4 -15z m-3 -60 c-5 -45 -15 -56 -12 -13 4 45 4 48 10
48 3 0 4 -16 2 -35z m1 -95 c1 -16 -1 -30 -6 -30 -6 0 -8 41 -3 58 3 9 7 -3 9
-28z m-1 -85 c0 -52 -8 -53 -12 -3 -2 30 1 48 9 48 2 0 3 -20 3 -45z m1 -136
c1 -34 -2 -59 -5 -56 -8 8 -10 117 -3 117 4 0 7 -28 8 -61z m2 -73 c0 -3 -4
-8 -10 -11 -5 -3 -10 -1 -10 4 0 6 5 11 10 11 6 0 10 -2 10 -4z m0 -58 c0 -18
-2 -20 -9 -8 -6 8 -7 18 -5 22 9 14 14 9 14 -14z m-8570 -208 c0 -5 -2 -10 -4
-10 -3 0 -8 5 -11 10 -3 6 -1 10 4 10 6 0 11 -4 11 -10z m-123 -82 c-3 -7 -5
-2 -5 12 0 14 2 19 5 13 2 -7 2 -19 0 -25z m5 -105 c-5 -101 -9 -111 -11 -25
0 45 2 82 7 82 4 0 6 -26 4 -57z"/>
</g>
</svg>
